<mxfile host="app.diagrams.net" agent="Mozilla/5.0 (Windows NT 10.0; Win64; x64) AppleWebKit/537.36 (KHTML, like Gecko) Chrome/128.0.0.0 Safari/537.36" version="24.7.10" pages="8">
  <diagram id="C5RBs43oDa-KdzZeNtuy" name="Exercise 7">
    <mxGraphModel dx="806" dy="461" grid="1" gridSize="10" guides="1" tooltips="1" connect="1" arrows="1" fold="1" page="1" pageScale="1" pageWidth="827" pageHeight="1169" math="0" shadow="0">
      <root>
        <mxCell id="WIyWlLk6GJQsqaUBKTNV-0" />
        <mxCell id="WIyWlLk6GJQsqaUBKTNV-1" parent="WIyWlLk6GJQsqaUBKTNV-0" />
        <mxCell id="zkfFHV4jXpPFQw0GAbJ--0" value="Estudiante" style="swimlane;fontStyle=1;align=center;verticalAlign=top;childLayout=stackLayout;horizontal=1;startSize=26;horizontalStack=0;resizeParent=1;resizeLast=0;collapsible=1;marginBottom=0;rounded=0;shadow=0;strokeWidth=1;" parent="WIyWlLk6GJQsqaUBKTNV-1" vertex="1" collapsed="1">
          <mxGeometry x="200" y="210" width="160" height="26" as="geometry">
            <mxRectangle x="170" y="210" width="220" height="174" as="alternateBounds" />
          </mxGeometry>
        </mxCell>
        <mxCell id="zkfFHV4jXpPFQw0GAbJ--1" value="- Name: String" style="text;align=left;verticalAlign=top;spacingLeft=4;spacingRight=4;overflow=hidden;rotatable=0;points=[[0,0.5],[1,0.5]];portConstraint=eastwest;" parent="zkfFHV4jXpPFQw0GAbJ--0" vertex="1">
          <mxGeometry y="26" width="220" height="26" as="geometry" />
        </mxCell>
        <mxCell id="zkfFHV4jXpPFQw0GAbJ--2" value="- Surname: String" style="text;align=left;verticalAlign=top;spacingLeft=4;spacingRight=4;overflow=hidden;rotatable=0;points=[[0,0.5],[1,0.5]];portConstraint=eastwest;rounded=0;shadow=0;html=0;" parent="zkfFHV4jXpPFQw0GAbJ--0" vertex="1">
          <mxGeometry y="52" width="220" height="26" as="geometry" />
        </mxCell>
        <mxCell id="zkfFHV4jXpPFQw0GAbJ--3" value="- Age: int&#xa;- Course: StringÂ &#xa;- Final Grade: double&#xa;" style="text;align=left;verticalAlign=top;spacingLeft=4;spacingRight=4;overflow=hidden;rotatable=0;points=[[0,0.5],[1,0.5]];portConstraint=eastwest;rounded=0;shadow=0;html=0;" parent="zkfFHV4jXpPFQw0GAbJ--0" vertex="1">
          <mxGeometry y="78" width="220" height="62" as="geometry" />
        </mxCell>
        <mxCell id="zkfFHV4jXpPFQw0GAbJ--4" value="" style="line;html=1;strokeWidth=1;align=left;verticalAlign=middle;spacingTop=-1;spacingLeft=3;spacingRight=3;rotatable=0;labelPosition=right;points=[];portConstraint=eastwest;" parent="zkfFHV4jXpPFQw0GAbJ--0" vertex="1">
          <mxGeometry y="140" width="220" height="8" as="geometry" />
        </mxCell>
        <mxCell id="zkfFHV4jXpPFQw0GAbJ--5" value="+ mostrarInformacion () : void" style="text;align=left;verticalAlign=top;spacingLeft=4;spacingRight=4;overflow=hidden;rotatable=0;points=[[0,0.5],[1,0.5]];portConstraint=eastwest;" parent="zkfFHV4jXpPFQw0GAbJ--0" vertex="1">
          <mxGeometry y="148" width="220" height="26" as="geometry" />
        </mxCell>
        <mxCell id="TNS6sj4uHLZ0M_LJnXdQ-0" value="Association" style="endArrow=open;endFill=1;endSize=12;html=1;rounded=0;fontSize=12;curved=1;" edge="1" parent="WIyWlLk6GJQsqaUBKTNV-1">
          <mxGeometry width="160" relative="1" as="geometry">
            <mxPoint x="170" y="20" as="sourcePoint" />
            <mxPoint x="250" y="20" as="targetPoint" />
          </mxGeometry>
        </mxCell>
        <mxCell id="TNS6sj4uHLZ0M_LJnXdQ-2" value="" style="endArrow=diamondThin;endFill=1;endSize=24;html=1;rounded=0;fontSize=12;curved=1;" edge="1" parent="WIyWlLk6GJQsqaUBKTNV-1">
          <mxGeometry width="160" relative="1" as="geometry">
            <mxPoint x="170" y="40" as="sourcePoint" />
            <mxPoint x="250" y="40" as="targetPoint" />
          </mxGeometry>
        </mxCell>
        <mxCell id="TNS6sj4uHLZ0M_LJnXdQ-4" value="Agreggation" style="endArrow=diamondThin;endFill=0;endSize=24;html=1;rounded=0;fontSize=12;curved=1;" edge="1" parent="WIyWlLk6GJQsqaUBKTNV-1">
          <mxGeometry width="160" relative="1" as="geometry">
            <mxPoint x="260" y="20" as="sourcePoint" />
            <mxPoint x="390" y="20" as="targetPoint" />
          </mxGeometry>
        </mxCell>
        <mxCell id="TNS6sj4uHLZ0M_LJnXdQ-6" value="Extends" style="endArrow=block;endSize=16;endFill=0;html=1;rounded=0;fontSize=12;curved=1;" edge="1" parent="WIyWlLk6GJQsqaUBKTNV-1">
          <mxGeometry width="160" relative="1" as="geometry">
            <mxPoint x="253" y="40" as="sourcePoint" />
            <mxPoint x="390" y="40" as="targetPoint" />
          </mxGeometry>
        </mxCell>
        <mxCell id="TNS6sj4uHLZ0M_LJnXdQ-7" value="" style="endArrow=block;startArrow=block;endFill=1;startFill=1;html=1;rounded=0;fontSize=12;startSize=8;endSize=8;curved=1;" edge="1" parent="WIyWlLk6GJQsqaUBKTNV-1">
          <mxGeometry width="160" relative="1" as="geometry">
            <mxPoint x="170" y="60" as="sourcePoint" />
            <mxPoint x="280" y="60" as="targetPoint" />
            <Array as="points">
              <mxPoint x="210" y="60" />
            </Array>
          </mxGeometry>
        </mxCell>
        <mxCell id="TNS6sj4uHLZ0M_LJnXdQ-8" value="Association 2" style="edgeLabel;html=1;align=center;verticalAlign=middle;resizable=0;points=[];fontSize=12;" vertex="1" connectable="0" parent="TNS6sj4uHLZ0M_LJnXdQ-7">
          <mxGeometry x="-0.1128" relative="1" as="geometry">
            <mxPoint as="offset" />
          </mxGeometry>
        </mxCell>
        <mxCell id="TNS6sj4uHLZ0M_LJnXdQ-9" value="return" style="html=1;verticalAlign=bottom;endArrow=open;dashed=1;endSize=8;curved=0;rounded=0;fontSize=12;" edge="1" parent="WIyWlLk6GJQsqaUBKTNV-1">
          <mxGeometry relative="1" as="geometry">
            <mxPoint x="370" y="70" as="sourcePoint" />
            <mxPoint x="290" y="70" as="targetPoint" />
          </mxGeometry>
        </mxCell>
        <mxCell id="TNS6sj4uHLZ0M_LJnXdQ-10" value="Mesagge" style="html=1;verticalAlign=bottom;endArrow=block;curved=0;rounded=0;fontSize=12;startSize=8;endSize=8;" edge="1" parent="WIyWlLk6GJQsqaUBKTNV-1">
          <mxGeometry width="80" relative="1" as="geometry">
            <mxPoint x="180" y="90" as="sourcePoint" />
            <mxPoint x="260" y="90" as="targetPoint" />
          </mxGeometry>
        </mxCell>
        <mxCell id="TNS6sj4uHLZ0M_LJnXdQ-11" value="Relation" style="endArrow=open;html=1;endSize=12;startArrow=diamondThin;startSize=14;startFill=0;edgeStyle=orthogonalEdgeStyle;rounded=0;fontSize=12;curved=1;" edge="1" parent="WIyWlLk6GJQsqaUBKTNV-1">
          <mxGeometry relative="1" as="geometry">
            <mxPoint x="270" y="90" as="sourcePoint" />
            <mxPoint x="390" y="90" as="targetPoint" />
          </mxGeometry>
        </mxCell>
        <mxCell id="TNS6sj4uHLZ0M_LJnXdQ-12" value="0..n" style="edgeLabel;resizable=0;html=1;align=left;verticalAlign=top;" connectable="0" vertex="1" parent="TNS6sj4uHLZ0M_LJnXdQ-11">
          <mxGeometry x="-1" relative="1" as="geometry" />
        </mxCell>
        <mxCell id="TNS6sj4uHLZ0M_LJnXdQ-13" value="1" style="edgeLabel;resizable=0;html=1;align=right;verticalAlign=top;" connectable="0" vertex="1" parent="TNS6sj4uHLZ0M_LJnXdQ-11">
          <mxGeometry x="1" relative="1" as="geometry" />
        </mxCell>
        <mxCell id="TNS6sj4uHLZ0M_LJnXdQ-14" value="Dependencia" style="endArrow=open;endSize=12;dashed=1;html=1;rounded=0;fontSize=12;curved=1;" edge="1" parent="WIyWlLk6GJQsqaUBKTNV-1">
          <mxGeometry width="160" relative="1" as="geometry">
            <mxPoint x="170" y="120" as="sourcePoint" />
            <mxPoint x="270" y="120" as="targetPoint" />
          </mxGeometry>
        </mxCell>
        <mxCell id="TNS6sj4uHLZ0M_LJnXdQ-15" value="" style="endArrow=block;dashed=1;endFill=0;endSize=12;html=1;rounded=0;fontSize=12;curved=1;" edge="1" parent="WIyWlLk6GJQsqaUBKTNV-1">
          <mxGeometry width="160" relative="1" as="geometry">
            <mxPoint x="280" y="120" as="sourcePoint" />
            <mxPoint x="420" y="120" as="targetPoint" />
          </mxGeometry>
        </mxCell>
        <mxCell id="TNS6sj4uHLZ0M_LJnXdQ-16" value="Implementacion" style="edgeLabel;html=1;align=center;verticalAlign=middle;resizable=0;points=[];fontSize=12;" vertex="1" connectable="0" parent="TNS6sj4uHLZ0M_LJnXdQ-15">
          <mxGeometry x="0.0644" relative="1" as="geometry">
            <mxPoint as="offset" />
          </mxGeometry>
        </mxCell>
        <mxCell id="TNS6sj4uHLZ0M_LJnXdQ-17" value="" style="endArrow=none;html=1;edgeStyle=orthogonalEdgeStyle;rounded=0;fontSize=12;startSize=8;endSize=8;curved=1;" edge="1" parent="WIyWlLk6GJQsqaUBKTNV-1">
          <mxGeometry relative="1" as="geometry">
            <mxPoint x="170" y="150" as="sourcePoint" />
            <mxPoint x="260" y="150" as="targetPoint" />
          </mxGeometry>
        </mxCell>
        <mxCell id="TNS6sj4uHLZ0M_LJnXdQ-18" value="parent" style="edgeLabel;resizable=0;html=1;align=left;verticalAlign=bottom;" connectable="0" vertex="1" parent="TNS6sj4uHLZ0M_LJnXdQ-17">
          <mxGeometry x="-1" relative="1" as="geometry" />
        </mxCell>
        <mxCell id="TNS6sj4uHLZ0M_LJnXdQ-19" value="child" style="edgeLabel;resizable=0;html=1;align=right;verticalAlign=bottom;" connectable="0" vertex="1" parent="TNS6sj4uHLZ0M_LJnXdQ-17">
          <mxGeometry x="1" relative="1" as="geometry" />
        </mxCell>
        <mxCell id="TNS6sj4uHLZ0M_LJnXdQ-26" value="EXERCISE 7" style="text;html=1;align=center;verticalAlign=middle;whiteSpace=wrap;rounded=0;fontSize=16;" vertex="1" parent="WIyWlLk6GJQsqaUBKTNV-1">
          <mxGeometry x="225" y="170" width="110" height="30" as="geometry" />
        </mxCell>
      </root>
    </mxGraphModel>
  </diagram>
  <diagram id="EHlPYU52z4pUk1DoLq4V" name="Exercise 8 ">
    <mxGraphModel dx="596" dy="685" grid="0" gridSize="10" guides="1" tooltips="1" connect="1" arrows="1" fold="1" page="0" pageScale="1" pageWidth="827" pageHeight="1169" math="0" shadow="0">
      <root>
        <mxCell id="0" />
        <mxCell id="1" parent="0" />
        <mxCell id="bWOWVWBNQIrtRA4pM4QA-1" value="PRODUCTO" style="swimlane;fontStyle=1;align=center;verticalAlign=top;childLayout=stackLayout;horizontal=1;startSize=26;horizontalStack=0;resizeParent=1;resizeLast=0;collapsible=1;marginBottom=0;rounded=0;shadow=0;strokeWidth=1;" vertex="1" parent="1">
          <mxGeometry x="149" y="167" width="328" height="178" as="geometry">
            <mxRectangle x="149" y="167" width="160" height="26" as="alternateBounds" />
          </mxGeometry>
        </mxCell>
        <mxCell id="bWOWVWBNQIrtRA4pM4QA-4" value="- Name: String&#xa;- Code: String&#xa;- Price: double&#xa;- Amount: int&#xa;" style="text;align=left;verticalAlign=top;spacingLeft=4;spacingRight=4;overflow=hidden;rotatable=0;points=[[0,0.5],[1,0.5]];portConstraint=eastwest;rounded=0;shadow=0;html=0;" vertex="1" parent="bWOWVWBNQIrtRA4pM4QA-1">
          <mxGeometry y="26" width="328" height="84" as="geometry" />
        </mxCell>
        <mxCell id="bWOWVWBNQIrtRA4pM4QA-5" value="" style="line;html=1;strokeWidth=1;align=left;verticalAlign=middle;spacingTop=-1;spacingLeft=3;spacingRight=3;rotatable=0;labelPosition=right;points=[];portConstraint=eastwest;" vertex="1" parent="bWOWVWBNQIrtRA4pM4QA-1">
          <mxGeometry y="110" width="328" height="8" as="geometry" />
        </mxCell>
        <mxCell id="bWOWVWBNQIrtRA4pM4QA-6" value="+ sell (int quantity sold) : void&#xa;+ replenish (int quantity replenished) : void" style="text;align=left;verticalAlign=top;spacingLeft=4;spacingRight=4;overflow=hidden;rotatable=0;points=[[0,0.5],[1,0.5]];portConstraint=eastwest;" vertex="1" parent="bWOWVWBNQIrtRA4pM4QA-1">
          <mxGeometry y="118" width="328" height="55" as="geometry" />
        </mxCell>
        <mxCell id="bWOWVWBNQIrtRA4pM4QA-8" value="EXERCISE 8&amp;nbsp;" style="text;html=1;align=center;verticalAlign=middle;whiteSpace=wrap;rounded=0;fontSize=16;" vertex="1" parent="1">
          <mxGeometry x="175" y="127" width="108" height="30" as="geometry" />
        </mxCell>
      </root>
    </mxGraphModel>
  </diagram>
  <diagram id="OLzTyFoSUUE0_yQdpGcS" name="Exercise 9">
    <mxGraphModel dx="359" dy="567" grid="0" gridSize="10" guides="1" tooltips="1" connect="1" arrows="1" fold="1" page="0" pageScale="1" pageWidth="827" pageHeight="1169" math="0" shadow="0">
      <root>
        <mxCell id="0" />
        <mxCell id="1" parent="0" />
        <mxCell id="CHxg_qCR_DRRXgzsUVGm-1" value="EXERCISE 9" style="text;html=1;align=center;verticalAlign=middle;whiteSpace=wrap;rounded=0;fontSize=16;" vertex="1" parent="1">
          <mxGeometry x="190" y="37" width="108" height="30" as="geometry" />
        </mxCell>
        <mxCell id="5Hu-MGp3seWEc7KXJj-p-1" value="COCHE" style="swimlane;fontStyle=1;align=center;verticalAlign=top;childLayout=stackLayout;horizontal=1;startSize=26;horizontalStack=0;resizeParent=1;resizeLast=0;collapsible=1;marginBottom=0;rounded=0;shadow=0;strokeWidth=1;" vertex="1" collapsed="1" parent="1">
          <mxGeometry x="164" y="73" width="160" height="26" as="geometry">
            <mxRectangle x="80" y="76" width="328" height="149" as="alternateBounds" />
          </mxGeometry>
        </mxCell>
        <mxCell id="5Hu-MGp3seWEc7KXJj-p-2" value="- Brand: String&#xa;- Model: String&#xa;- Speed limit: double&#xa;" style="text;align=left;verticalAlign=top;spacingLeft=4;spacingRight=4;overflow=hidden;rotatable=0;points=[[0,0.5],[1,0.5]];portConstraint=eastwest;rounded=0;shadow=0;html=0;" vertex="1" parent="5Hu-MGp3seWEc7KXJj-p-1">
          <mxGeometry y="26" width="328" height="60" as="geometry" />
        </mxCell>
        <mxCell id="5Hu-MGp3seWEc7KXJj-p-3" value="" style="line;html=1;strokeWidth=1;align=left;verticalAlign=middle;spacingTop=-1;spacingLeft=3;spacingRight=3;rotatable=0;labelPosition=right;points=[];portConstraint=eastwest;" vertex="1" parent="5Hu-MGp3seWEc7KXJj-p-1">
          <mxGeometry y="86" width="328" height="8" as="geometry" />
        </mxCell>
        <mxCell id="5Hu-MGp3seWEc7KXJj-p-4" value="+ accelerate () : void&#xa;+ brake () : void&#xa;+ show information () : void" style="text;align=left;verticalAlign=top;spacingLeft=4;spacingRight=4;overflow=hidden;rotatable=0;points=[[0,0.5],[1,0.5]];portConstraint=eastwest;" vertex="1" parent="5Hu-MGp3seWEc7KXJj-p-1">
          <mxGeometry y="94" width="328" height="55" as="geometry" />
        </mxCell>
      </root>
    </mxGraphModel>
  </diagram>
  <diagram id="4ZTyxBh5IYH3Ct8RjTuN" name="Exercise 10">
    <mxGraphModel dx="359" dy="967" grid="0" gridSize="10" guides="1" tooltips="1" connect="1" arrows="1" fold="1" page="0" pageScale="1" pageWidth="827" pageHeight="1169" math="0" shadow="0">
      <root>
        <mxCell id="0" />
        <mxCell id="1" parent="0" />
        <mxCell id="9OP4IPspTPIkxlMEV-nQ-1" value="EXERCISE 10" style="text;html=1;align=center;verticalAlign=middle;whiteSpace=wrap;rounded=0;fontSize=16;" vertex="1" parent="1">
          <mxGeometry x="140" y="-3" width="108" height="30" as="geometry" />
        </mxCell>
        <mxCell id="4IVDjHeTyscvTFFIk984-5" value="ANIMAL" style="swimlane;fontStyle=1;align=center;verticalAlign=top;childLayout=stackLayout;horizontal=1;startSize=26;horizontalStack=0;resizeParent=1;resizeLast=0;collapsible=1;marginBottom=0;rounded=0;shadow=0;strokeWidth=1;" vertex="1" collapsed="1" parent="1">
          <mxGeometry x="114" y="33" width="160" height="26" as="geometry">
            <mxRectangle x="25" y="38" width="328" height="137" as="alternateBounds" />
          </mxGeometry>
        </mxCell>
        <mxCell id="4IVDjHeTyscvTFFIk984-6" value="- Name: String&#xa;- Species: String&#xa;- Age: double&#xa;" style="text;align=left;verticalAlign=top;spacingLeft=4;spacingRight=4;overflow=hidden;rotatable=0;points=[[0,0.5],[1,0.5]];portConstraint=eastwest;rounded=0;shadow=0;html=0;" vertex="1" parent="4IVDjHeTyscvTFFIk984-5">
          <mxGeometry y="26" width="328" height="60" as="geometry" />
        </mxCell>
        <mxCell id="4IVDjHeTyscvTFFIk984-7" value="" style="line;html=1;strokeWidth=1;align=left;verticalAlign=middle;spacingTop=-1;spacingLeft=3;spacingRight=3;rotatable=0;labelPosition=right;points=[];portConstraint=eastwest;" vertex="1" parent="4IVDjHeTyscvTFFIk984-5">
          <mxGeometry y="86" width="328" height="8" as="geometry" />
        </mxCell>
        <mxCell id="4IVDjHeTyscvTFFIk984-8" value="+ make sound () : void&#xa;+ eat (String food) : void" style="text;align=left;verticalAlign=top;spacingLeft=4;spacingRight=4;overflow=hidden;rotatable=0;points=[[0,0.5],[1,0.5]];portConstraint=eastwest;" vertex="1" parent="4IVDjHeTyscvTFFIk984-5">
          <mxGeometry y="94" width="328" height="43" as="geometry" />
        </mxCell>
      </root>
    </mxGraphModel>
  </diagram>
  <diagram id="8vgWQxaujYKItYkZSQY7" name="Exercise 11">
    <mxGraphModel dx="359" dy="967" grid="0" gridSize="10" guides="1" tooltips="1" connect="1" arrows="1" fold="1" page="0" pageScale="1" pageWidth="827" pageHeight="1169" math="0" shadow="0">
      <root>
        <mxCell id="0" />
        <mxCell id="1" parent="0" />
        <mxCell id="MvsMqJ-OZCM6JtHaiy3G-1" value="EXERCISE 11" style="text;html=1;align=center;verticalAlign=middle;whiteSpace=wrap;rounded=0;fontSize=16;" vertex="1" parent="1">
          <mxGeometry x="140" y="-3" width="108" height="30" as="geometry" />
        </mxCell>
        <mxCell id="B1YPM0kGBWgOwNDO5hGO-1" value="ADIVINANZA" style="swimlane;fontStyle=1;align=center;verticalAlign=top;childLayout=stackLayout;horizontal=1;startSize=26;horizontalStack=0;resizeParent=1;resizeLast=0;collapsible=1;marginBottom=0;rounded=0;shadow=0;strokeWidth=1;" vertex="1" collapsed="1" parent="1">
          <mxGeometry x="111" y="33" width="160" height="26" as="geometry">
            <mxRectangle x="25" y="38" width="328" height="137" as="alternateBounds" />
          </mxGeometry>
        </mxCell>
        <mxCell id="B1YPM0kGBWgOwNDO5hGO-2" value="- SecretNumber: int&#xa;- Attempts: int&#xa;" style="text;align=left;verticalAlign=top;spacingLeft=4;spacingRight=4;overflow=hidden;rotatable=0;points=[[0,0.5],[1,0.5]];portConstraint=eastwest;rounded=0;shadow=0;html=0;" vertex="1" parent="B1YPM0kGBWgOwNDO5hGO-1">
          <mxGeometry y="26" width="328" height="60" as="geometry" />
        </mxCell>
        <mxCell id="B1YPM0kGBWgOwNDO5hGO-3" value="" style="line;html=1;strokeWidth=1;align=left;verticalAlign=middle;spacingTop=-1;spacingLeft=3;spacingRight=3;rotatable=0;labelPosition=right;points=[];portConstraint=eastwest;" vertex="1" parent="B1YPM0kGBWgOwNDO5hGO-1">
          <mxGeometry y="86" width="328" height="8" as="geometry" />
        </mxCell>
        <mxCell id="B1YPM0kGBWgOwNDO5hGO-4" value="+ restartTheGame () : void&#xa;+ guess (int number) : boolean" style="text;align=left;verticalAlign=top;spacingLeft=4;spacingRight=4;overflow=hidden;rotatable=0;points=[[0,0.5],[1,0.5]];portConstraint=eastwest;" vertex="1" parent="B1YPM0kGBWgOwNDO5hGO-1">
          <mxGeometry y="94" width="328" height="43" as="geometry" />
        </mxCell>
      </root>
    </mxGraphModel>
  </diagram>
  <diagram id="wuiZCbsTSWXptMpXGy38" name="Exercise 12">
    <mxGraphModel dx="359" dy="967" grid="0" gridSize="10" guides="1" tooltips="1" connect="1" arrows="1" fold="1" page="0" pageScale="1" pageWidth="827" pageHeight="1169" math="0" shadow="0">
      <root>
        <mxCell id="0" />
        <mxCell id="1" parent="0" />
        <mxCell id="vs_72UnISiOQGKc3OnNT-1" value="EXERCISE 12" style="text;html=1;align=center;verticalAlign=middle;whiteSpace=wrap;rounded=0;fontSize=16;" vertex="1" parent="1">
          <mxGeometry x="140" y="-3" width="108" height="30" as="geometry" />
        </mxCell>
        <mxCell id="rNj0fZEeHXuxCH7rhBgu-1" value="CATEGORIA" style="swimlane;fontStyle=1;align=center;verticalAlign=top;childLayout=stackLayout;horizontal=1;startSize=26;horizontalStack=0;resizeParent=1;resizeLast=0;collapsible=1;marginBottom=0;rounded=0;shadow=0;strokeWidth=1;" vertex="1" collapsed="1" parent="1">
          <mxGeometry x="114" y="31" width="160" height="26" as="geometry">
            <mxRectangle x="25" y="38" width="328" height="137" as="alternateBounds" />
          </mxGeometry>
        </mxCell>
        <mxCell id="rNj0fZEeHXuxCH7rhBgu-2" value="- Name: String&#xa;" style="text;align=left;verticalAlign=top;spacingLeft=4;spacingRight=4;overflow=hidden;rotatable=0;points=[[0,0.5],[1,0.5]];portConstraint=eastwest;rounded=0;shadow=0;html=0;" vertex="1" parent="rNj0fZEeHXuxCH7rhBgu-1">
          <mxGeometry y="26" width="328" height="60" as="geometry" />
        </mxCell>
        <mxCell id="rNj0fZEeHXuxCH7rhBgu-3" value="" style="line;html=1;strokeWidth=1;align=left;verticalAlign=middle;spacingTop=-1;spacingLeft=3;spacingRight=3;rotatable=0;labelPosition=right;points=[];portConstraint=eastwest;" vertex="1" parent="rNj0fZEeHXuxCH7rhBgu-1">
          <mxGeometry y="86" width="328" height="8" as="geometry" />
        </mxCell>
        <mxCell id="rNj0fZEeHXuxCH7rhBgu-4" value="+ showInformation(): void&#xa;" style="text;align=left;verticalAlign=top;spacingLeft=4;spacingRight=4;overflow=hidden;rotatable=0;points=[[0,0.5],[1,0.5]];portConstraint=eastwest;" vertex="1" parent="rNj0fZEeHXuxCH7rhBgu-1">
          <mxGeometry y="94" width="328" height="43" as="geometry" />
        </mxCell>
        <mxCell id="cUfT-S3fJ9C8vSiwvCNM-1" value="CURSO" style="swimlane;fontStyle=1;align=center;verticalAlign=top;childLayout=stackLayout;horizontal=1;startSize=26;horizontalStack=0;resizeParent=1;resizeLast=0;collapsible=1;marginBottom=0;rounded=0;shadow=0;strokeWidth=1;" vertex="1" collapsed="1" parent="1">
          <mxGeometry x="114" y="66" width="160" height="26" as="geometry">
            <mxRectangle x="25" y="73" width="328" height="208" as="alternateBounds" />
          </mxGeometry>
        </mxCell>
        <mxCell id="cUfT-S3fJ9C8vSiwvCNM-2" value="- Name: String&#xa;- Code: String&#xa;- Capability: int&#xa;- Category: Categoria&#xa;- EnrolledStudents: ArrayList &lt;Estudiante&gt;" style="text;align=left;verticalAlign=top;spacingLeft=4;spacingRight=4;overflow=hidden;rotatable=0;points=[[0,0.5],[1,0.5]];portConstraint=eastwest;rounded=0;shadow=0;html=0;" vertex="1" parent="cUfT-S3fJ9C8vSiwvCNM-1">
          <mxGeometry y="26" width="328" height="82" as="geometry" />
        </mxCell>
        <mxCell id="cUfT-S3fJ9C8vSiwvCNM-3" value="" style="line;html=1;strokeWidth=1;align=left;verticalAlign=middle;spacingTop=-1;spacingLeft=3;spacingRight=3;rotatable=0;labelPosition=right;points=[];portConstraint=eastwest;" vertex="1" parent="cUfT-S3fJ9C8vSiwvCNM-1">
          <mxGeometry y="108" width="328" height="27" as="geometry" />
        </mxCell>
        <mxCell id="cUfT-S3fJ9C8vSiwvCNM-4" value="+ enrollStudent (Estudiante estudiante) : void&#xa;+ removeStudent (Estudiante estudiante) : void&#xa;+ showInformation () : void&#xa;+ rateCourse (double qualification) : void" style="text;align=left;verticalAlign=top;spacingLeft=4;spacingRight=4;overflow=hidden;rotatable=0;points=[[0,0.5],[1,0.5]];portConstraint=eastwest;" vertex="1" parent="cUfT-S3fJ9C8vSiwvCNM-1">
          <mxGeometry y="135" width="328" height="59" as="geometry" />
        </mxCell>
        <mxCell id="Mf6QLlGlAos0CZN4nlLG-1" value="ESTUDIANTE" style="swimlane;fontStyle=1;align=center;verticalAlign=top;childLayout=stackLayout;horizontal=1;startSize=26;horizontalStack=0;resizeParent=1;resizeLast=0;collapsible=1;marginBottom=0;rounded=0;shadow=0;strokeWidth=1;" vertex="1" collapsed="1" parent="1">
          <mxGeometry x="114" y="102" width="160" height="26" as="geometry">
            <mxRectangle x="114" y="102" width="328" height="151" as="alternateBounds" />
          </mxGeometry>
        </mxCell>
        <mxCell id="Mf6QLlGlAos0CZN4nlLG-2" value="- Name: String&#xa;- Enrollment: String&#xa;- EnrolledCourses: ArrayList &lt;Curso&gt;" style="text;align=left;verticalAlign=top;spacingLeft=4;spacingRight=4;overflow=hidden;rotatable=0;points=[[0,0.5],[1,0.5]];portConstraint=eastwest;rounded=0;shadow=0;html=0;" vertex="1" parent="Mf6QLlGlAos0CZN4nlLG-1">
          <mxGeometry y="26" width="328" height="56" as="geometry" />
        </mxCell>
        <mxCell id="Mf6QLlGlAos0CZN4nlLG-3" value="" style="line;html=1;strokeWidth=1;align=left;verticalAlign=middle;spacingTop=-1;spacingLeft=3;spacingRight=3;rotatable=0;labelPosition=right;points=[];portConstraint=eastwest;" vertex="1" parent="Mf6QLlGlAos0CZN4nlLG-1">
          <mxGeometry y="82" width="328" height="27" as="geometry" />
        </mxCell>
        <mxCell id="Mf6QLlGlAos0CZN4nlLG-4" value="+ enrollInCourse (Curso curso) : void&#xa;+ showInformation () : void" style="text;align=left;verticalAlign=top;spacingLeft=4;spacingRight=4;overflow=hidden;rotatable=0;points=[[0,0.5],[1,0.5]];portConstraint=eastwest;" vertex="1" parent="Mf6QLlGlAos0CZN4nlLG-1">
          <mxGeometry y="109" width="328" height="42" as="geometry" />
        </mxCell>
      </root>
    </mxGraphModel>
  </diagram>
  <diagram id="YIqnOHqk_u7BPvQRF_oZ" name="Exercise 13">
    <mxGraphModel dx="893" dy="967" grid="0" gridSize="10" guides="1" tooltips="1" connect="1" arrows="1" fold="1" page="0" pageScale="1" pageWidth="827" pageHeight="1169" math="0" shadow="0">
      <root>
        <mxCell id="0" />
        <mxCell id="1" parent="0" />
        <mxCell id="flfR6-q0yLrt5J9Epxd8-1" value="EXERCISE 13" style="text;html=1;align=center;verticalAlign=middle;whiteSpace=wrap;rounded=0;fontSize=16;" vertex="1" parent="1">
          <mxGeometry x="-85" y="-151" width="146" height="39" as="geometry" />
        </mxCell>
        <mxCell id="zyBo2Om6yY_rQEDzc-DO-1" value="LIBRO" style="swimlane;fontStyle=1;align=center;verticalAlign=top;childLayout=stackLayout;horizontal=1;startSize=26;horizontalStack=0;resizeParent=1;resizeLast=0;collapsible=1;marginBottom=0;rounded=0;shadow=0;strokeWidth=1;" vertex="1" collapsed="1" parent="1">
          <mxGeometry x="197.5" y="92" width="160" height="26" as="geometry">
            <mxRectangle x="114" y="102" width="328" height="161" as="alternateBounds" />
          </mxGeometry>
        </mxCell>
        <mxCell id="zyBo2Om6yY_rQEDzc-DO-2" value="- Tittle: String&#xa;- Author: String&#xa;- Avaibable: boolean" style="text;align=left;verticalAlign=top;spacingLeft=4;spacingRight=4;overflow=hidden;rotatable=0;points=[[0,0.5],[1,0.5]];portConstraint=eastwest;rounded=0;shadow=0;html=0;" vertex="1" parent="zyBo2Om6yY_rQEDzc-DO-1">
          <mxGeometry y="26" width="328" height="56" as="geometry" />
        </mxCell>
        <mxCell id="zyBo2Om6yY_rQEDzc-DO-3" value="" style="line;html=1;strokeWidth=1;align=left;verticalAlign=middle;spacingTop=-1;spacingLeft=3;spacingRight=3;rotatable=0;labelPosition=right;points=[];portConstraint=eastwest;" vertex="1" parent="zyBo2Om6yY_rQEDzc-DO-1">
          <mxGeometry y="82" width="328" height="27" as="geometry" />
        </mxCell>
        <mxCell id="zyBo2Om6yY_rQEDzc-DO-4" value="+ lend () : void&#xa;+ showInformation () : void&#xa;+ return() : void" style="text;align=left;verticalAlign=top;spacingLeft=4;spacingRight=4;overflow=hidden;rotatable=0;points=[[0,0.5],[1,0.5]];portConstraint=eastwest;" vertex="1" parent="zyBo2Om6yY_rQEDzc-DO-1">
          <mxGeometry y="109" width="328" height="52" as="geometry" />
        </mxCell>
        <mxCell id="_wI5V9BDPCqpuNS0cYrG-1" value="EXERCISE 13" style="text;html=1;align=center;verticalAlign=middle;whiteSpace=wrap;rounded=0;fontSize=16;" vertex="1" parent="1">
          <mxGeometry x="224" y="56" width="107" height="30" as="geometry" />
        </mxCell>
        <mxCell id="_wI5V9BDPCqpuNS0cYrG-3" value="MIEMBRO" style="swimlane;fontStyle=1;align=center;verticalAlign=top;childLayout=stackLayout;horizontal=1;startSize=26;horizontalStack=0;resizeParent=1;resizeLast=0;collapsible=1;marginBottom=0;rounded=0;shadow=0;strokeWidth=1;" vertex="1" collapsed="1" parent="1">
          <mxGeometry x="197.5" y="131" width="160" height="26" as="geometry">
            <mxRectangle x="116" y="167" width="328" height="161" as="alternateBounds" />
          </mxGeometry>
        </mxCell>
        <mxCell id="_wI5V9BDPCqpuNS0cYrG-4" value="- Tittle: String&#xa;- borrowedBook: Libro" style="text;align=left;verticalAlign=top;spacingLeft=4;spacingRight=4;overflow=hidden;rotatable=0;points=[[0,0.5],[1,0.5]];portConstraint=eastwest;rounded=0;shadow=0;html=0;" vertex="1" parent="_wI5V9BDPCqpuNS0cYrG-3">
          <mxGeometry y="26" width="328" height="56" as="geometry" />
        </mxCell>
        <mxCell id="_wI5V9BDPCqpuNS0cYrG-5" value="" style="line;html=1;strokeWidth=1;align=left;verticalAlign=middle;spacingTop=-1;spacingLeft=3;spacingRight=3;rotatable=0;labelPosition=right;points=[];portConstraint=eastwest;" vertex="1" parent="_wI5V9BDPCqpuNS0cYrG-3">
          <mxGeometry y="82" width="328" height="27" as="geometry" />
        </mxCell>
        <mxCell id="_wI5V9BDPCqpuNS0cYrG-6" value="+ borrow () : void&#xa;+ returnbook () : void&#xa;+ showInformation() : void" style="text;align=left;verticalAlign=top;spacingLeft=4;spacingRight=4;overflow=hidden;rotatable=0;points=[[0,0.5],[1,0.5]];portConstraint=eastwest;" vertex="1" parent="_wI5V9BDPCqpuNS0cYrG-3">
          <mxGeometry y="109" width="328" height="52" as="geometry" />
        </mxCell>
      </root>
    </mxGraphModel>
  </diagram>
  <diagram id="S6-OcYfLqdAwaOovzWhX" name="Exercise 14">
    <mxGraphModel dx="1135" dy="572" grid="0" gridSize="10" guides="1" tooltips="1" connect="1" arrows="1" fold="1" page="0" pageScale="1" pageWidth="827" pageHeight="1169" math="0" shadow="0">
      <root>
        <mxCell id="0" />
        <mxCell id="1" parent="0" />
        <mxCell id="k9TaZm3Q4APtaN8dbD9l-1" value="EXERCISE 14" style="text;html=1;align=center;verticalAlign=middle;whiteSpace=wrap;rounded=0;fontSize=16;" vertex="1" parent="1">
          <mxGeometry x="175" y="24" width="107" height="30" as="geometry" />
        </mxCell>
      </root>
    </mxGraphModel>
  </diagram>
</mxfile>
